<svg id="object" xmlns="http://www.w3.org/2000/svg" viewBox="0 0 309.33 104.73"><defs><style>.cls-1{fill:#005396;}.cls-2{fill:#0072b8;}.cls-3{fill:#088cde;}.cls-4{fill:#19a6ed;}</style></defs><title>waves</title><path class="cls-1" d="M291.25,18.14c-5.73-6.57-12.23-14-25.07-14s-19.33,7.45-25.06,14c-5.32,6.09-9.9,11.35-19.19,11.35s-13.88-5.26-19.19-11.35c-5.73-6.57-12.23-14-25.07-14s-19.34,7.45-25.07,14c-5.31,6.09-9.9,11.35-19.19,11.35s-13.87-5.26-19.18-11.35c-5.73-6.57-12.23-14-25.07-14s-19.33,7.45-25.07,14c-5.31,6.09-9.89,11.35-19.18,11.35S31,24.23,25.72,18.14C20,11.61,13.58,4.23.91,4.13v7.81C10,12,14.58,17.24,19.84,23.27c5.73,6.58,12.23,14,25.07,14s19.33-7.45,25.07-14c5.31-6.08,9.89-11.34,19.18-11.34S103,17.19,108.35,23.27c5.73,6.58,12.23,14,25.06,14s19.34-7.45,25.07-14c5.31-6.09,9.9-11.34,19.19-11.34s13.88,5.26,19.19,11.34c5.73,6.58,12.23,14,25.07,14s19.33-7.45,25.07-14c5.31-6.09,9.9-11.34,19.18-11.34s13.88,5.25,19.19,11.34c5.7,6.54,12.17,13.94,24.88,14V29.48C301.09,29.41,296.53,24.19,291.25,18.14Z" transform="translate(-0.91 -4.12)"/><path class="cls-2" d="M291.25,42c-5.73-6.57-12.23-14-25.07-14s-19.33,7.45-25.06,14c-5.32,6.09-9.9,11.35-19.19,11.35S208.05,48.08,202.74,42c-5.73-6.57-12.23-14-25.07-14s-19.34,7.45-25.07,14c-5.31,6.09-9.9,11.35-19.19,11.35S119.54,48.08,114.23,42C108.5,35.42,102,28,89.16,28S69.83,35.42,64.09,42c-5.31,6.09-9.89,11.35-19.18,11.35S31,48.08,25.72,42C20,35.47,13.58,28.08.91,28v7.81c9.11.1,13.67,5.3,18.93,11.33,5.73,6.58,12.23,14,25.07,14S64.24,53.7,70,47.12C75.29,41,79.87,35.78,89.16,35.78S103,41,108.35,47.12c5.73,6.58,12.23,14,25.06,14s19.34-7.45,25.07-14c5.31-6.08,9.9-11.34,19.19-11.34S191.55,41,196.86,47.12c5.73,6.58,12.23,14,25.07,14s19.33-7.45,25.07-14c5.31-6.08,9.9-11.34,19.18-11.34S280.06,41,285.37,47.12c5.7,6.54,12.17,13.94,24.88,14V53.33C301.09,53.26,296.53,48,291.25,42Z" transform="translate(-0.91 -4.12)"/><path class="cls-3" d="M291.25,65.84c-5.73-6.57-12.23-14-25.07-14s-19.33,7.45-25.06,14c-5.32,6.09-9.9,11.35-19.19,11.35s-13.88-5.26-19.19-11.35c-5.73-6.57-12.23-14-25.07-14s-19.34,7.45-25.07,14c-5.31,6.09-9.9,11.35-19.19,11.35s-13.87-5.26-19.18-11.35c-5.73-6.57-12.23-14-25.07-14s-19.33,7.45-25.07,14c-5.31,6.09-9.89,11.35-19.18,11.35S31,71.93,25.72,65.84C20,59.32,13.58,51.93.91,51.83v7.81c9.11.1,13.67,5.3,18.93,11.34,5.73,6.57,12.23,14,25.07,14S64.24,77.55,70,71c5.31-6.09,9.89-11.35,19.18-11.35S103,64.89,108.35,71c5.73,6.57,12.23,14,25.06,14s19.34-7.45,25.07-14c5.31-6.09,9.9-11.35,19.19-11.35S191.55,64.89,196.86,71c5.73,6.57,12.23,14,25.07,14S241.26,77.55,247,71c5.31-6.09,9.9-11.35,19.18-11.35S280.06,64.89,285.37,71c5.7,6.53,12.17,13.93,24.88,14v-7.8C301.09,77.11,296.53,71.89,291.25,65.84Z" transform="translate(-0.91 -4.12)"/><path class="cls-4" d="M292.56,89.69c-5.74-6.57-12.24-14-25.07-14s-19.34,7.45-25.07,14c-5.31,6.09-9.9,11.35-19.19,11.35S209.35,95.79,204,89.7c-5.73-6.58-12.23-14-25.07-14s-19.34,7.45-25.07,14C148.59,95.79,144,101,134.72,101s-13.88-5.25-19.19-11.34c-5.73-6.58-12.23-14-25.07-14s-19.33,7.45-25.06,14C60.08,95.79,55.5,101,46.21,101S32.33,95.79,27,89.7c-5.74-6.58-12.24-14-25.07-14a4,4,0,0,0-1,.16v7.49a3.66,3.66,0,0,0,1,.16c9.28,0,13.87,5.26,19.18,11.35,5.73,6.57,12.23,14,25.07,14s19.34-7.45,25.07-14c5.31-6.09,9.9-11.35,19.18-11.35s13.88,5.26,19.19,11.35c5.73,6.57,12.23,14,25.07,14s19.33-7.45,25.07-14c5.31-6.09,9.89-11.35,19.18-11.35s13.88,5.26,19.19,11.35c5.73,6.57,12.23,14,25.07,14s19.34-7.45,25.07-14c5.31-6.09,9.9-11.35,19.19-11.35s13.87,5.26,19.18,11.35c5.51,6.31,11.73,13.41,23.58,14V101C302,100.45,297.57,95.45,292.56,89.69Z" transform="translate(-0.91 -4.12)"/></svg>